<?xml version="1.0" encoding="iso-8859-1"?>
<!-- Generator: Adobe Illustrator 19.0.0, SVG Export Plug-In . SVG Version: 6.00 Build 0)  -->
<svg version="1.1" id="Layer_1" xmlns="http://www.w3.org/2000/svg" xmlns:xlink="http://www.w3.org/1999/xlink" x="0px" y="0px"
	 viewBox="0 0 469.333 469.333" style="enable-background:new 0 0 469.333 469.333;" xml:space="preserve">
<g>
	<g>
		<g>
			<path d="M401.781,0c-21.156,0-41.365,10.104-54.24,27.292l-78.906,112.302c-8.417,11.24-26.771,12.542-36.677,2.615
				l-22.167-22.167c-8.625-8.625-20.094-13.375-32.292-13.375h-3c-12.198,0-23.667,4.75-32.292,13.375l-32.417,32.417
				c-4.167,4.167-4.167,10.917,0,15.083l1.833,1.833L12.5,268.5C4.437,276.562,0,287.271,0,298.667s4.438,22.104,12.5,30.167
				l16.385,16.396c3.354,3.365,8.573,4.104,12.719,1.781l37.604-20.885l-20.885,37.604c-2.313,4.156-1.583,9.354,1.781,12.719
				l80.396,80.385c8.063,8.063,18.771,12.5,30.167,12.5s22.104-4.438,30.167-12.5l99.125-99.125l1.833,1.833
				c2.083,2.083,4.813,3.125,7.542,3.125c2.729,0,5.458-1.042,7.542-3.125l32.417-32.417c8.625-8.625,13.375-20.094,13.375-32.292
				v-3c0-12.198-4.75-23.667-13.375-32.292l-22.167-22.167c-4.531-4.531-7.125-10.802-7.125-17.208
				c0-7.615,3.635-14.896,9.469-19.271l112.833-79.302c16.927-12.677,27.031-32.885,27.031-54.042
				C469.333,30.302,439.031,0,401.781,0z M185.75,441.75c-8.063,8.063-22.104,8.063-30.167,0l-74.708-74.698l35.115-63.208
				c2.313-4.156,1.583-9.354-1.781-12.719c-3.375-3.365-8.573-4.104-12.719-1.781l-63.208,35.115L27.583,313.75
				c-4.031-4.031-6.25-9.385-6.25-15.083s2.219-11.052,6.25-15.083l99.125-99.125l158.167,158.167L185.75,441.75z M429.771,104.333
				l-112.844,79.302c-11.438,8.583-18.26,22.24-18.26,36.531c0,12.198,4.75,23.667,13.375,32.292l22.167,22.167
				c4.531,4.531,7.125,10.802,7.125,17.208v3c0,6.406-2.594,12.677-7.125,17.208l-24.875,24.875L132.417,160l24.875-24.875
				c4.531-4.531,10.802-7.125,17.208-7.125h3c6.406,0,12.677,2.594,17.208,7.125l22.167,22.167
				c18.729,18.729,52.75,16.542,69.021-5.156l78.906-112.313c8.677-11.573,22.5-18.49,36.979-18.49
				c25.49,0,46.219,20.729,46.219,46.219C448,82.031,441.083,95.854,429.771,104.333z"/>
			<path d="M405.333,42.667C393.573,42.667,384,52.24,384,64c0,11.76,9.573,21.333,21.333,21.333S426.667,75.76,426.667,64
				C426.667,52.24,417.094,42.667,405.333,42.667z"/>
		</g>
	</g>
</g>
<g>
</g>
<g>
</g>
<g>
</g>
<g>
</g>
<g>
</g>
<g>
</g>
<g>
</g>
<g>
</g>
<g>
</g>
<g>
</g>
<g>
</g>
<g>
</g>
<g>
</g>
<g>
</g>
<g>
</g>
</svg>
