<svg id="Capa_1" enable-background="new 0 0 512 512" height="512" viewBox="0 0 512 512" width="512" xmlns="http://www.w3.org/2000/svg"><g><path d="m474.392 165.874c-.582-3.299-2.413-6.174-5.157-8.095l-27.317-19.128c-3.693-2.585-8.515-2.987-12.582-1.049l-16.777 7.988 1.769-18.497c.43-4.486-1.598-8.88-5.29-11.466l-34.404-24.09c-3.693-2.586-8.514-2.99-12.584-1.05l-16.777 7.988 1.769-18.497c.43-4.486-1.598-8.88-5.29-11.466l-34.406-24.091c-3.691-2.583-8.511-2.987-12.582-1.049l-16.777 7.988 1.769-18.497c.43-4.487-1.598-8.881-5.29-11.466l-27.321-19.127c-2.743-1.921-6.07-2.658-9.369-2.077-3.299.582-6.174 2.414-8.094 5.157l-96.396 137.668c-3.382-1.727-7.208-2.327-11.01-1.657-4.625.815-8.656 3.383-11.348 7.229l-14.453 20.64c-5.079 7.255-3.885 17.036 2.412 22.913l-10.261 14.654c-5.781 8.257-8.002 18.271-6.251 28.198 1.75 9.927 7.261 18.578 15.518 24.359l33.024 23.124c12.545 8.784 15.606 26.138 6.821 38.684-7.406 10.576-15.842 20.517-25.074 29.546l-56.368 55.131c-13.104 12.816-19.938 30.666-18.75 48.971 1.161 17.883 9.963 34.255 24.144 44.917.569.428 2.916 2.071 3.512 2.459 9.945 6.475 21.463 9.814 33.148 9.814 5.79 0 11.622-.82 17.322-2.485 17.608-5.144 32.044-17.67 39.606-34.368l32.526-71.825c5.326-11.761 11.782-23.088 19.189-33.666 8.785-12.545 26.137-15.605 38.685-6.821l37.152 26.014c7.155 5.01 15.835 6.935 24.431 5.417 8.601-1.517 16.097-6.292 21.106-13.446l13.145-18.772c2.515 1.281 5.234 1.909 7.938 1.909 5.545 0 11.009-2.612 14.425-7.49l14.453-20.64c2.693-3.847 3.728-8.511 2.912-13.136-.672-3.804-2.544-7.193-5.323-9.779l64.717-92.427c2.376-3.393 1.552-8.07-1.842-10.446s-8.07-1.55-10.446 1.842l-64.608 92.271-33.121-23.192 22.291-31.834c2.376-3.393 1.552-8.07-1.842-10.446-3.394-2.377-8.07-1.551-10.446 1.842l-22.291 31.834-12.481-8.739 10.44-14.909c2.376-3.393 1.552-8.07-1.842-10.446s-8.07-1.55-10.446 1.842l-10.44 14.909-32.708-22.902 10.44-14.909c2.376-3.393 1.552-8.07-1.842-10.446-3.394-2.377-8.07-1.55-10.446 1.842l-10.44 14.909-40.964-28.684 10.439-14.909c2.376-3.393 1.551-8.07-1.842-10.446-3.394-2.377-8.07-1.551-10.446 1.842l-10.439 14.909-12.481-8.74 22.29-31.834c2.376-3.393 1.552-8.07-1.842-10.446-3.393-2.376-8.07-1.55-10.446 1.842l-22.29 31.834-24.864-17.41 94.879-135.495 24.126 16.894-2.052 21.461c-.428 4.472 1.592 8.852 5.273 11.429 3.68 2.578 8.487 2.979 12.545 1.047l19.464-9.268 32.057 22.446-2.052 21.461c-.428 4.472 1.592 8.852 5.273 11.429 3.681 2.578 8.487 2.979 12.545 1.047l19.465-9.268 32.056 22.446-2.052 21.461c-.428 4.473 1.593 8.852 5.274 11.43 3.682 2.578 8.488 2.98 12.544 1.046l19.465-9.268 24.126 16.893-10.192 14.555c-2.376 3.393-1.552 8.07 1.842 10.446 3.735 2.294 7.217 1.68 10.446-1.842l11.603-16.57c1.92-2.745 2.659-6.073 2.078-9.371-.582-3.299.581 3.298 0 0zm-108.351 161.349-14.453 20.64c-.816 1.165-2.428 1.448-3.592.634l-180.936-126.694c-3.394-2.376-8.07-1.55-10.446 1.842-2.376 3.393-1.552 8.07 1.842 10.446l170.665 119.502-13.041 18.624c-2.711 3.872-6.768 6.457-11.423 7.278-4.656.821-9.351-.221-13.223-2.932l-37.152-26.014c-19.321-13.53-46.047-8.814-59.576 10.505-7.939 11.337-14.858 23.477-20.566 36.083l-32.526 71.824c-5.755 12.707-16.743 22.241-30.147 26.157-12.997 3.797-26.876 1.794-38.081-5.502-.454-.295-2.24-1.546-2.676-1.874-10.684-8.031-17.314-20.387-18.192-33.9-.904-13.935 4.296-27.521 14.269-37.275l56.368-55.131c9.894-9.677 18.936-20.331 26.873-31.667 13.529-19.321 8.816-46.047-10.505-59.575l-33.024-23.124c-4.975-3.483-8.295-8.696-9.35-14.676-1.055-5.981.283-12.014 3.767-16.989l10.151-14.496 18.72 13.108c3.395 2.377 8.071 1.551 10.446-1.842 2.376-3.393 1.552-8.07-1.842-10.446l-28.992-20.301c-1.165-.816-1.449-2.427-.634-3.591l14.453-20.64c1.022-1.202 2.22-1.414 3.592-.633l238.6 167.071c1.162.813 1.446 2.423.631 3.588z"/><path d="m114.812 427.606c-12.267-8.59-29.231-5.596-37.818 6.668-8.588 12.264-5.597 29.23 6.668 37.818 4.731 3.313 10.158 4.901 15.537 4.901 8.568 0 17.006-4.035 22.282-11.57 8.587-12.263 5.596-29.229-6.669-37.817zm-5.62 29.214c-3.844 5.489-11.437 6.827-16.927 2.984-5.489-3.844-6.828-11.437-2.984-16.927 3.843-5.49 11.437-6.827 16.927-2.984 5.489 3.844 6.828 11.438 2.984 16.927z"/></g></svg>