<svg id="Layer_1" height="512" viewBox="0 0 512 512" width="512" xmlns="http://www.w3.org/2000/svg" data-name="Layer 1"><path d="m107.873 429.88c-11.064-6.39-25.262-2.583-31.65 8.48-6.387 11.064-2.583 25.263 8.481 31.65 3.639 2.101 7.617 3.099 11.545 3.099 8.014 0 15.818-4.155 20.104-11.579 6.387-11.064 2.583-25.263-8.48-31.65zm-.18 26.65c-3.631 6.289-11.701 8.452-17.99 4.82-6.289-3.631-8.451-11.701-4.82-17.99 2.437-4.221 6.872-6.582 11.427-6.582 2.232 0 4.494.567 6.562 1.762 6.288 3.631 8.451 11.702 4.82 17.99zm352.036-337.679-51.057-29.477s0 0-.001-.001c-.002-.001-.004-.002-.007-.004l-65.399-37.758s-.002-.002-.004-.003c-.005-.003-.011-.006-.016-.009l-29.616-17.099s-.003-.002-.005-.003c-.007-.004-.014-.007-.021-.011l-32.899-18.994c-16.379-9.456-35.504-11.957-53.854-7.041-18.348 4.917-33.661 16.645-43.118 33.024l-69.922 121.108c-25.164 43.585-12.628 60.18 8.14 87.671 4.769 6.313 10.174 13.469 15.752 21.762 24.383 36.25-5.72 62.436-37.592 90.159-15.792 13.737-30.71 26.713-39.038 41.138-18.004 31.185-17.43 69.611 1.5 100.284.883 1.432 2.427 2.322 4.108 2.372.967.028 1.933.042 2.897.042 34.923 0 67.181-18.538 84.702-48.885 8.328-14.425 12.106-33.831 16.107-54.377 8.073-41.463 15.69-80.63 59.284-77.635 9.971.685 18.87 1.787 26.722 2.761 34.193 4.242 54.832 6.8 79.996-36.786l74.375-128.823c9.511-16.473 26.316-26.695 44.956-27.344 3.877-.136 7.114-2.759 8.053-6.528.94-3.769-.686-7.604-4.045-9.543zm-202.105 199.1c-7.979-.989-17.023-2.11-27.268-2.813-52.397-3.576-61.634 43.845-69.784 85.7-3.836 19.702-7.46 38.312-14.952 51.288-15.709 27.209-44.619 43.844-75.929 43.885-15.619-27.135-15.667-60.489.042-87.698 7.492-12.978 21.797-25.42 36.941-38.593 32.173-27.986 68.639-59.706 39.327-103.285-5.731-8.521-11.225-15.792-16.071-22.208-19.907-26.353-28.593-37.886-9.898-72.279l205.142 118.439c-20.442 33.398-34.77 31.629-67.55 27.564zm72.605-36.192-205.258-118.507 25.238-43.713 205.259 118.506-25.238 43.714zm71.875-124.493-41.638 72.119-11.506-6.643 16.845-29.176c1.381-2.392.562-5.449-1.83-6.83s-5.449-.562-6.83 1.83l-16.845 29.176-32.674-18.864 39.624-68.631c1.381-2.392.562-5.449-1.83-6.83-2.392-1.38-5.449-.561-6.83 1.83l-39.625 68.631-36.674-21.174 16.845-29.176c1.381-2.392.561-5.449-1.83-6.83-2.392-1.38-5.449-.562-6.83 1.83l-16.845 29.176-15.167-8.757 39.624-68.632c1.381-2.392.561-5.449-1.83-6.83-2.393-1.381-5.449-.561-6.83 1.83l-39.624 68.632-26.459-15.276 24.709-42.798c1.381-2.392.561-5.449-1.83-6.83-2.392-1.381-5.449-.561-6.83 1.83l-24.709 42.798-39.477-22.792 37.184-64.404c8.121-14.066 21.278-24.14 37.046-28.365 5.284-1.416 10.642-2.116 15.96-2.116 10.554 0 20.952 2.758 30.305 8.158l1.482.856c-5.809.095-11.651.905-17.416 2.449-18.348 4.917-33.661 16.645-43.118 33.024-1.381 2.392-.561 5.449 1.83 6.83.788.455 1.647.671 2.495.67 1.728 0 3.409-.896 4.335-2.5 8.121-14.066 21.277-24.14 37.046-28.365 15.071-4.037 30.743-2.242 44.382 5.015-24.149.389-47.522 13.067-60.452 35.462l-12.158 21.059c-1.381 2.392-.561 5.449 1.83 6.83.788.455 1.647.671 2.495.671 1.728 0 3.409-.897 4.335-2.501l12.158-21.059c16.812-29.119 54.176-39.134 83.297-22.332l34.009 19.635c-24.186.354-47.608 13.035-60.556 35.461l-24.859 43.057c-1.381 2.392-.562 5.449 1.83 6.83.788.455 1.647.671 2.495.67 1.728 0 3.409-.896 4.335-2.5l24.859-43.057c8.121-14.066 21.278-24.14 37.046-28.365 15.766-4.223 32.195-2.079 46.26 6.039l19.665 11.353c-6.272.095-12.57 1.007-18.75 2.788-17.764 5.119-32.617 16.719-41.823 32.664-1.381 2.392-.562 5.449 1.83 6.83.788.455 1.647.671 2.496.671 1.728 0 3.408-.897 4.334-2.501 16.039-27.78 50.395-38.27 79.073-24.54-20.132 2.249-37.974 13.939-48.385 31.972z"/></svg>