<svg id="line" height="512" viewBox="0 0 64 64" width="512" xmlns="http://www.w3.org/2000/svg"><path d="m57.36 47.66-14.38-11.33a1.01153 1.01153 0 0 1 -.09-1.5l5.88-5.88a3.01179 3.01179 0 0 0 0-4.25l-19.82-19.82a3.08784 3.08784 0 0 0 -4.25 0l-4.37 4.37a.98789.98789 0 0 0 -.1 1.28l2.99 4.2-4.18994-3a1.00272 1.00272 0 0 0 -1.29.11l-6.37 6.37a1.00161 1.00161 0 0 0 -.11 1.29l.66.91-.92006-.65a.99062.99062 0 0 0 -1.29.11l-4.83 4.83a3.02091 3.02091 0 0 0 0 4.25l19.82 19.82a3.01168 3.01168 0 0 0 4.25 0l5.88-5.88a1.01107 1.01107 0 0 1 1.5.09l11.33 14.38a6.58351 6.58351 0 0 0 .55.62c4.35 4.48 12.24.94 11.78-5.3a6.93285 6.93285 0 0 0 -2.63-5.02zm-51.07-20.13a.9959.9959 0 0 1 0-1.41l4.24-4.24 5.09 3.63a1.00347 1.00347 0 0 0 1.4-1.39l-3.64-5.1 5.18-5.17 8.39 6a1.0083 1.0083 0 0 0 1.4-1.4l-6-8.39 3.77-3.77a.99587.99587 0 0 1 1.41 0l16.29 16.29-21.24 21.24zm50.27 29.03a4.94778 4.94778 0 0 1 -7.33-.43l-11.33-14.39a3.0198 3.0198 0 0 0 -4.48-.27l-5.89 5.89a.99588.99588 0 0 1 -1.41 0l-2.13-2.13 21.24-21.24 2.13 2.13a.99581.99581 0 0 1 0 1.41l-5.89 5.89a3.01982 3.01982 0 0 0 .27 4.48l14.39 11.33a4.94154 4.94154 0 0 1 .43 7.33z"/><path d="m50.89648 50.897a3.00281 3.00281 0 0 0 4.24665 4.246 3.00281 3.00281 0 0 0 -4.24665-4.246zm2.832 2.832a1.00256 1.00256 0 0 1 -1.41742-1.41754 1.00256 1.00256 0 0 1 1.41746 1.41754z"/></svg>