<svg id="Capa_1" enable-background="new 0 0 512 512" height="512" viewBox="0 0 512 512" width="512" xmlns="http://www.w3.org/2000/svg"><g><path d="m166.958 450h-14c-5.523 0-10 4.477-10 10s4.477 10 10 10h14c5.523 0 10-4.477 10-10s-4.477-10-10-10z"/><path d="m166.958 366.003h-14c-5.523 0-10 4.477-10 10s4.477 10 10 10h14c5.523 0 10-4.477 10-10s-4.477-10-10-10z"/><path d="m359.008 450h-14c-5.522 0-10 4.477-10 10s4.478 10 10 10h14c5.522 0 10-4.477 10-10s-4.478-10-10-10z"/><path d="m359.008 366.003h-14c-5.522 0-10 4.477-10 10s4.478 10 10 10h14c5.522 0 10-4.477 10-10s-4.478-10-10-10z"/><path d="m457.881 10c0-5.523-4.478-10-10-10h-383.881c-5.523 0-10 4.477-10 10v492c0 5.523 4.477 10 10 10h384c5.522 0 10-4.477 10-10zm-383.881 334h171.95v64h-171.95zm191.951 0h172.049v64h-172.049zm171.93-20h-171.941v-304h171.94v304zm-363.881-304h171.94v304h-171.94zm0 408h171.95v64h-171.95zm191.951 64v-64h172.049v64z"/><path d="m299.94 189c5.522 0 10-4.477 10-10v-14c0-5.523-4.478-10-10-10s-10 4.477-10 10v14c0 5.523 4.478 10 10 10z"/><path d="m211.94 155c-5.523 0-10 4.477-10 10v14c0 5.523 4.477 10 10 10s10-4.477 10-10v-14c0-5.523-4.477-10-10-10z"/></g></svg>