<svg id="Layer_1" viewBox="0 0 64 64" xmlns="http://www.w3.org/2000/svg" data-name="Layer 1"><g fill="rgb(0,0,0)"><path d="m62 32.75h-52.56v-3.75a1.613 1.613 0 0 1 1.62-1.62h.5a1.622 1.622 0 0 1 1.63 1.62 1 1 0 0 0 2 0 3.628 3.628 0 0 0 -3.63-3.62h-.5a3.619 3.619 0 0 0 -3.62 3.62v3.75h-5.44a2 2 0 0 0 -2 2v29.25h64v-29.25a2 2 0 0 0 -2-2zm-60 29.25v-23h28.84v23zm60 0h-29.125v-23h29.125zm-29.125-25.023h-2-28.875v-2.227h60v2.227z"/><path d="m62 0h-18.621c-.023 0-.045.006-.069.007v-.007h-22.62v.007c-.024 0-.046-.007-.069-.007h-18.621a2 2 0 0 0 -2 2v18.5a2 2 0 0 0 2 2h18.621c.023 0 .045-.006.069-.007v.007h22.62v-.007c.024 0 .046.007.069.007h18.621a2 2 0 0 0 2-2v-18.5a2 2 0 0 0 -2-2zm-41.379 20.5h-18.621v-18.5h18.621zm20.689 0h-18.62v-18.5h18.62zm20.69 0h-18.621v-18.5h18.621z"/><path d="m27.75 12.5a3 3 0 1 0 3 3 3 3 0 0 0 -3-3zm0 4a1 1 0 1 1 1-1 1 1 0 0 1 -1 1z"/><path d="m48.5 18.5a3 3 0 1 0 -3-3 3 3 0 0 0 3 3zm0-4a1 1 0 1 1 -1 1 1 1 0 0 1 1-1z"/><path d="m7 18.5a3 3 0 1 0 -3-3 3 3 0 0 0 3 3zm0-4a1 1 0 1 1 -1 1 1 1 0 0 1 1-1z"/><path d="m37.875 51a3 3 0 0 0 3-3v-4a3 3 0 0 0 -6 0v4a3 3 0 0 0 3 3zm-1-7a1 1 0 0 1 2 0v4a1 1 0 0 1 -2 0z"/><path d="m25.75 41a3 3 0 0 0 -3 3v4a3 3 0 0 0 6 0v-4a3 3 0 0 0 -3-3zm1 7a1 1 0 0 1 -2 0v-4a1 1 0 0 1 2 0z"/></g></svg>