<svg enable-background="new 0 0 512 512" height="512" viewBox="0 0 512 512" width="512" xmlns="http://www.w3.org/2000/svg"><g id="_x32_0_Kitchen_Cabinet"><g><path d="m15.987 503.748h479.989c4.279 0 7.742-3.467 7.742-7.742 0-43.403 0-126.837 0-170.196 0-15.296-12.445-27.741-27.741-27.741-50.541 0-383.835 0-439.992 0-15.296 0-27.741 12.445-27.741 27.741v170.196c0 4.275 3.463 7.742 7.743 7.742zm7.742-146.995h144.512v131.511h-144.512zm159.996 0h144.512v131.511h-144.512zm304.508 131.51h-144.511v-131.51h144.512v131.51zm0-162.453v15.458h-144.511v-27.714h132.255c6.873 0 12.256 5.383 12.256 12.256zm-159.996 15.458h-144.512v-27.714h144.512zm-304.508-15.458c0-6.759 5.497-12.256 12.256-12.256h132.255v27.714h-144.511z"/><path d="m148.242 401.971c-4.279 0-7.742 3.467-7.742 7.742v25.59c0 4.276 3.463 7.742 7.742 7.742s7.742-3.467 7.742-7.742v-25.59c0-4.275-3.463-7.742-7.742-7.742z"/><path d="m308.238 401.971c-4.279 0-7.742 3.467-7.742 7.742v25.59c0 4.276 3.463 7.742 7.742 7.742s7.742-3.467 7.742-7.742v-25.59c.001-4.275-3.462-7.742-7.742-7.742z"/><path d="m468.235 443.045c4.279 0 7.742-3.467 7.742-7.742v-25.59c0-4.276-3.463-7.742-7.742-7.742s-7.742 3.467-7.742 7.742v25.59c-.001 4.276 3.462 7.742 7.742 7.742z"/><path d="m8.282 35.993v162.941c0 15.296 12.445 27.741 27.749 27.741h99.993 119.999 119.999 99.993c15.296 0 27.741-12.445 27.741-27.741v-162.941c0-15.296-12.445-27.741-27.741-27.741h-99.993-119.999-119.999-99.993c-15.304 0-27.749 12.445-27.749 27.741zm479.989 0v162.941c0 6.759-5.497 12.256-12.256 12.256h-92.251v-187.453h92.251c6.759 0 12.256 5.496 12.256 12.256zm-119.992 175.197h-104.514v-187.453h104.514zm-119.999 0h-104.514v-187.453h104.514zm-119.999 0h-92.25c-6.759 0-12.264-5.497-12.264-12.256v-162.941c0-6.759 5.504-12.256 12.264-12.256h92.251v187.453z"/><path d="m107.239 138.855c4.279 0 7.742-3.467 7.742-7.742v-27.303c0-4.276-3.463-7.742-7.742-7.742s-7.742 3.467-7.742 7.742v27.302c0 4.276 3.463 7.743 7.742 7.743z"/><path d="m164.808 138.855c4.279 0 7.742-3.467 7.742-7.742v-27.303c0-4.276-3.463-7.742-7.742-7.742s-7.742 3.467-7.742 7.742v27.302c0 4.276 3.462 7.743 7.742 7.743z"/><path d="m347.237 138.855c4.279 0 7.742-3.467 7.742-7.742v-27.303c0-4.276-3.463-7.742-7.742-7.742s-7.742 3.467-7.742 7.742v27.302c0 4.276 3.463 7.743 7.742 7.743z"/><path d="m404.799 138.855c4.279 0 7.742-3.467 7.742-7.742v-27.303c0-4.276-3.463-7.742-7.742-7.742s-7.742 3.467-7.742 7.742v27.302c-.001 4.276 3.462 7.743 7.742 7.743z"/></g></g></svg>