<svg id="Layer_1" enable-background="new 0 0 512 512" viewBox="0 0 512 512" xmlns="http://www.w3.org/2000/svg"><path d="m504.995 419.715h-7.2v-189.496c0-2.233-1.065-4.333-2.868-5.651-1.803-1.319-4.125-1.698-6.254-1.022l-117.53 37.353v-74.56c0-1.759-.662-3.454-1.854-4.747-5.507-5.972-11.312-11.456-17.364-16.455v-59.756c0-1.665-.593-3.276-1.674-4.543-25.715-30.156-59.188-46.764-94.251-46.764-35.082 0-68.564 16.608-94.279 46.764-1.081 1.267-1.674 2.878-1.674 4.543v59.768c-6.05 4.994-11.855 10.474-17.362 16.441-1.194 1.293-1.856 2.989-1.856 4.749v74.56l-117.53-37.353c-2.129-.678-4.452-.297-6.254 1.022-1.802 1.318-2.868 3.417-2.868 5.651v189.497h-7.172c-3.867 0-7.001 3.135-7.001 7.001v24.208c0 3.867 3.135 7.001 7.001 7.001h497.99c3.867 0 7.001-3.135 7.001-7.001v-24.208c.001-3.867-3.134-7.002-7.001-7.002zm-21.203-179.925v179.925h-22.961v-99.042c0-3.867-3.135-7.001-7.001-7.001h-82.687v-38.079zm-67.805 179.925v-39.005h30.841v39.005zm-44.844 0v-39.005h30.841v39.005zm-108 0v-66.438c15.792.651 31.232 3.47 46.035 8.341v58.096h-46.035zm-60.066 0v-58.187c14.813-4.845 30.263-7.636 46.063-8.262v66.449zm-48.245 0v-33.365c10.791-7.888 22.263-14.421 34.243-19.548v52.914h-34.243zm-44.816 0v-39.005h30.813v39.005zm-44.845 0v-39.005h30.841v39.005zm75.658-92.041v39.033h-30.813v-39.033zm108.311-183.955v44.423c-15.759.575-31.195 3.129-46.063 7.578v-40.922c14.686-6.459 30.203-10.234 46.063-11.079zm60.038 11.19v40.895c-14.859-4.473-30.285-7.055-46.035-7.654v-44.415c15.857.879 31.365 4.684 46.035 11.174zm137.651 172.765v39.033h-30.841v-39.033zm-44.845 39.033h-30.841v-39.033h30.841zm-247.152-55.929c10.788-7.885 22.26-14.414 34.243-19.539v60.428c-11.895 4.643-23.353 10.55-34.243 17.67zm48.245-24.806c14.809-4.838 30.259-7.625 46.063-8.249v61.535c-15.756.576-31.192 3.134-46.063 7.589zm60.066-8.239c15.795.65 31.236 3.464 46.035 8.329v60.868c-14.862-4.48-30.288-7.065-46.035-7.665zm60.038 13.624c11.88 5.106 23.255 11.597 33.959 19.421v58.559c-10.803-7.064-22.167-12.933-33.959-17.559zm33.959-20.889v.078 23.221c-10.801-7.06-22.164-12.926-33.959-17.548v-60.432c11.88 5.106 23.255 11.597 33.959 19.421zm-47.962.908c-14.858-4.473-30.285-7.055-46.035-7.653v-61.561c15.795.65 31.236 3.465 46.035 8.329zm-60.038-69.225v61.563c-15.759.575-31.195 3.129-46.063 7.578v-60.892c14.809-4.838 30.259-7.625 46.063-8.249zm-60.066 73.957c-11.898 4.639-23.356 10.543-34.243 17.659v-23.221c0-.026 0-.052 0-.078v-35.261c10.788-7.885 22.26-14.414 34.243-19.539zm-93.061 90.599h-30.842v-39.033h30.841v39.033zm227.168.212c11.876 5.11 23.252 11.603 33.959 19.431v33.365h-33.959zm33.959-177.813v29.089c-10.801-7.06-22.164-12.926-33.959-17.548v-38.578c5.939 3.466 11.7 7.394 17.246 11.776.069.058.141.11.212.165 5.746 4.556 11.26 9.594 16.501 15.096zm-183.09-81.11c22.768-25.763 51.781-39.919 81.95-39.919 30.151 0 59.154 14.156 81.921 39.919v46.746c-5.918-3.92-12.027-7.399-18.288-10.432-.289-.164-.591-.307-.903-.43-19.673-9.372-40.853-14.315-62.535-14.345-.018 0-.035-.003-.053-.003-.01 0-.02.001-.03.002-.037 0-.074-.002-.111-.002-21.485 0-42.487 4.829-62.026 14.013-.615.193-1.192.472-1.721.818-6.232 3.024-12.311 6.49-18.203 10.393v-46.76zm15.024 53.919v38.621c-11.898 4.639-23.356 10.543-34.243 17.659v-29.087c10.443-10.953 21.967-20.065 34.243-27.193zm-160.895 77.875 112.649 35.802v38.079h-82.658c-3.867 0-7.001 3.135-7.001 7.001v99.042h-22.99zm469.815 204.133h-483.988v-10.205h133.824 216.312 133.852z"/></svg>