<?xml version="1.0" encoding="UTF-8"?>
<svg xmlns="http://www.w3.org/2000/svg" viewBox="0 0 64 64" width="512" height="512"><g id="_03-Building" data-name="03-Building"><path d="M60,14H52V8h1a2.002,2.002,0,0,0,2-2V4a2.002,2.002,0,0,0-2-2H11A2.002,2.002,0,0,0,9,4V6a2.002,2.002,0,0,0,2,2h1v6H4a2.002,2.002,0,0,0-2,2v2a2.002,2.002,0,0,0,2,2H5V46a1,1,0,0,0,2,0V20h5V45a1,1,0,0,0,2,0V8H50V45a1,1,0,0,0,2,0V20h5V46a1,1,0,0,0,2,0V20h1a2.002,2.002,0,0,0,2-2V16A2.002,2.002,0,0,0,60,14ZM12,18H4V16h8ZM11,6V4H53l.00146,2ZM60,18H52V16h8ZM28,35a1,1,0,0,0,1,1h6a1,1,0,0,0,1-1V27a1,1,0,0,0-1-1H29a1,1,0,0,0-1,1Zm2-7h4v6H30Zm-1-6h6a1,1,0,0,0,1-1V13a1,1,0,0,0-1-1H29a1,1,0,0,0-1,1v8A1,1,0,0,0,29,22Zm1-8h4v6H30Zm9,21a1,1,0,0,0,1,1h6a1,1,0,0,0,1-1V27a1,1,0,0,0-1-1H40a1,1,0,0,0-1,1Zm2-7h4v6H41Zm-1-6h6a1,1,0,0,0,1-1V13a1,1,0,0,0-1-1H40a1,1,0,0,0-1,1v8A1,1,0,0,0,40,22Zm1-8h4v6H41ZM17,35a1,1,0,0,0,1,1h6a1,1,0,0,0,1-1V27a1,1,0,0,0-1-1H18a1,1,0,0,0-1,1Zm2-7h4v6H19Zm-1-6h6a1,1,0,0,0,1-1V13a1,1,0,0,0-1-1H18a1,1,0,0,0-1,1v8A1,1,0,0,0,18,22Zm1-8h4v6H19ZM57.9209,51.083a5.46872,5.46872,0,0,0-9.8418,0A4.854,4.854,0,0,0,45.542,52.43994,5.05666,5.05666,0,0,0,44,56H42V41a1,1,0,0,0-1-1H23a1,1,0,0,0-1,1V56H20a5.05666,5.05666,0,0,0-1.542-3.56006A4.854,4.854,0,0,0,15.9209,51.083a5.46872,5.46872,0,0,0-9.8418,0A4.854,4.854,0,0,0,3.542,52.43994,5.05666,5.05666,0,0,0,2,56v5a1,1,0,0,0,1,1H61a1,1,0,0,0,1-1V56a5.05666,5.05666,0,0,0-1.542-3.56006A4.854,4.854,0,0,0,57.9209,51.083ZM33,42h7V56H33Zm-9,0h7V56H24ZM4.9458,53.86475A2.6332,2.6332,0,0,1,6.752,53.02686a1.01963,1.01963,0,0,0,.95948-.6709,3.47316,3.47316,0,0,1,6.57714,0,1.00525,1.00525,0,0,0,.95948.6709,2.69885,2.69885,0,0,1,1.80615.83789A3.04742,3.04742,0,0,1,18,56H4A3.04742,3.04742,0,0,1,4.9458,53.86475ZM60,60H4V58H60ZM46,56a3.04742,3.04742,0,0,1,.9458-2.13525,2.66851,2.66851,0,0,1,1.80615-.83789.99709.99709,0,0,0,.95948-.6709,3.47316,3.47316,0,0,1,6.57714,0,.9874.9874,0,0,0,.95948.6709,2.73213,2.73213,0,0,1,1.80615.83789A3.04742,3.04742,0,0,1,60,56Z"/></g></svg>
