<svg id="Layer_1" enable-background="new 0 0 66 66" height="512" viewBox="0 0 66 66" width="512" xmlns="http://www.w3.org/2000/svg"><g style="fill:none;stroke:#000;stroke-width:2;stroke-linecap:round;stroke-linejoin:round;stroke-miterlimit:10"><path d="m36.8 58.8v-34.6"/><path d="m30.1 17.3h-14-11.2v41.5"/><path d="m50.9 17.3h10.1v41.5"/><path d="m45 58.8v-34.9"/><path d="m48.6 22.8h8.8v4h-8.8z"/><g><path d="m9.6 22.8h8.8v4h-8.8z"/><path d="m23.4 22.8h8.8v4h-8.8z"/></g><g><path d="m9.6 32h8.8v4h-8.8z"/><path d="m23.4 32h8.8v4h-8.8z"/></g><g><path d="m9.6 41.3h8.8v4h-8.8z"/><path d="m23.4 41.3h8.8v4h-8.8z"/></g><path d="m48.6 32h8.8v4h-8.8z"/><path d="m48.6 41.3h8.8v4h-8.8z"/><path d="m17 58.8v-9.2h7.7v9.2"/><path d="m50.7 58.8v-9.2h4.6v9.2"/><path d="m2 58.8h62v4.3h-62z"/><g><path d="m40.5 14c-1.5 0-2.8-1.4-2.8-3s1.3-3 2.8-3 2.8 1.4 2.8 3"/><path d="m40.5 14c1.5 0 2.8 1.4 2.8 3s-1.3 3-2.8 3-2.8-1.4-2.8-3"/><path d="m40.5 8v-2"/><path d="m40.5 20.1v1.7"/><ellipse cx="40.5" cy="13.9" rx="10.9" ry="11"/></g><path d="m4.9 17.3v-12.8l11.2 4.6v8.2"/><path d="m8.6 11.8h4.2"/></g></svg>