<svg clip-rule="evenodd" fill-rule="evenodd" stroke-linejoin="round" stroke-miterlimit="2" viewBox="0 0 32 32" xmlns="http://www.w3.org/2000/svg"><g transform="matrix(1.375 0 0 1.094 -6 -2.719)"><path d="m7.273 14.795-.258.274c-.306.326-.765.278-1.025-.107-.259-.385-.221-.963.086-1.289l8.515-9.057c.813-.866 2.005-.866 2.818 0l8.515 9.057c.307.326.345.904.086 1.289-.26.385-.719.433-1.025.107l-.258-.274v12.376c0 .728-.23 1.426-.639 1.94s-.964.803-1.543.803h-13.09c-.579 0-1.134-.289-1.543-.803s-.639-1.212-.639-1.94zm16-1.547-6.803-7.236c-.271-.289-.669-.289-.94 0l-6.803 7.236v13.923c0 .243.077.475.213.647.137.171.322.268.515.268h13.09c.193 0 .378-.097.515-.268.136-.172.213-.404.213-.647z"/></g></svg>