<?xml version="1.0" encoding="iso-8859-1"?>
<!-- Generator: Adobe Illustrator 19.0.0, SVG Export Plug-In . SVG Version: 6.00 Build 0)  -->
<svg version="1.1" id="Layer_1" xmlns="http://www.w3.org/2000/svg" xmlns:xlink="http://www.w3.org/1999/xlink" x="0px" y="0px"
	 viewBox="0 0 512 512" style="enable-background:new 0 0 512 512;" xml:space="preserve">
<g>
	<g>
		<path d="M0,0v512h371.874v-70.063h-48.505v21.558H48.505v-26.947h26.947h16.168h29.642c13.373,0,24.253-10.879,24.253-24.253
			V293.726c0-13.373-10.879-24.253-24.253-24.253H91.621H75.453H48.505v-48.505h43.116v-12.382l51.414,42.845l10.351-12.421
			L91.621,187.54v-15.077H48.505V48.505h16.168v43.116h21.558v24.253c0,22.289,18.132,40.421,40.421,40.421
			s40.421-18.132,40.421-40.421V91.621h21.558V48.505H204.8v123.958h-53.895v48.505h102.4V48.505h16.168v70.063v59.284v118.568
			h177.853V177.853v-59.284V48.505h16.168v274.863H323.368v69.41L293.4,422.747l11.432,11.432l40.748-40.748h26.294v-21.558H512V0H0
			z M91.621,285.642h29.642c4.458,0,8.084,3.626,8.084,8.084s-3.626,8.084-8.084,8.084H91.621V285.642z M91.621,317.979h29.642
			c2.834,0,5.554-0.494,8.084-1.391v72.844c-2.53-0.898-5.25-1.391-8.084-1.391H91.621V317.979z M91.621,404.211h29.642
			c4.458,0,8.084,3.626,8.084,8.084c0,4.458-3.626,8.084-8.084,8.084H91.621V404.211z M75.453,285.642v32.337v70.063v32.337H48.505
			V285.642H75.453z M150.905,115.874c0,13.373-10.879,24.253-24.253,24.253c-13.373,0-24.253-10.879-24.253-24.253V91.621h48.505
			V115.874z M172.463,75.453h-5.39H86.232h-5.389V48.505h91.621V75.453z M431.158,280.253H285.642v-102.4h145.516V280.253z
			 M431.158,161.684H285.642v-26.947h145.516V161.684z M431.158,118.568H285.642V48.505h145.516V118.568z M495.832,355.705H355.705
			v21.558h-16.168v-37.726h140.126v-307.2h-32.337H269.474h-32.337V204.8h-70.063v-16.168h53.895V32.337h-32.337H64.674H32.337
			v156.295h43.116V204.8H32.337v64.674v167.074v43.116h307.2v-21.558h16.168v37.726H16.168V16.168h479.663V355.705z"/>
	</g>
</g>
<g>
	<g>
		<path d="M396.126,53.895h-75.453c-7.43,0-13.474,6.044-13.474,13.474v32.337c0,7.43,6.044,13.474,13.474,13.474h75.453
			c7.43,0,13.474-6.044,13.474-13.474V67.368C409.6,59.938,403.556,53.895,396.126,53.895z M393.432,97.011h-70.063V70.063h70.063
			V97.011z"/>
	</g>
</g>
<g>
	<g>
		<path d="M218.274,306.22c-34.716,0-62.959,28.243-62.959,62.959s28.243,62.959,62.959,62.959s62.959-28.243,62.959-62.959
			S252.989,306.22,218.274,306.22z M218.274,415.969c-25.8,0-46.79-20.99-46.79-46.79s20.99-46.79,46.79-46.79
			s46.79,20.99,46.79,46.79S244.074,415.969,218.274,415.969z"/>
	</g>
</g>
<g>
	<g>
		<rect x="406.905" y="420.379" width="16.168" height="16.168"/>
	</g>
</g>
<g>
	<g>
		<rect x="471.579" y="420.379" width="16.168" height="16.168"/>
	</g>
</g>
<g>
	<g>
		<rect x="439.242" y="420.379" width="16.168" height="16.168"/>
	</g>
</g>
<g>
</g>
<g>
</g>
<g>
</g>
<g>
</g>
<g>
</g>
<g>
</g>
<g>
</g>
<g>
</g>
<g>
</g>
<g>
</g>
<g>
</g>
<g>
</g>
<g>
</g>
<g>
</g>
<g>
</g>
</svg>
