<?xml version="1.0"?>
<svg xmlns="http://www.w3.org/2000/svg" id="Bahan" viewBox="0 0 64 64"><path d="M59.818,12.629a1.052,1.052,0,0,0-.718-.9L32.27,4.207a1.381,1.381,0,0,0-.569.009l-26.83,8.4a1.157,1.157,0,0,0-.6.529,2.14,2.14,0,0,0-.1.425V58.83a1,1,0,0,0,1,1H58.83a1,1,0,0,0,1-1C59.835,58.794,59.842,12.663,59.818,12.629ZM21.039,57.83,46.478,45.35l5.935,3.1L33.3,57.83ZM33,36.044V6.489l24.83,6.959v35.58Zm-20.683,9.1-.191-22.817L25.18,17.442V38.867ZM26.75,15.178a1,1,0,0,0-.92-.115L10.77,20.7a1,1,0,0,0-.65.944l.205,24.472L6.17,48.149V14.3L31,6.531V36.025L27.18,37.89V16A1,1,0,0,0,26.75,15.178ZM6.17,50.375l25.815-12.6,4.709,2.463L6.17,55.215Zm0,7.068L38.892,41.382,44.28,44.2,16.5,57.83H6.17Zm31.67.387L54.612,49.6l3.218,1.683V57.83Z"/><path d="M43.314,13.02l-7.043-1.982A1.006,1.006,0,0,0,35,12V31.853a1,1,0,0,0,.594.914L42.638,35.9a1.006,1.006,0,0,0,1.406-.913V13.982A1,1,0,0,0,43.314,13.02Zm-1.27,20.429L37,31.2V13.32l5.044,1.419Z"/><path d="M54.226,16.368l-7.044-2.091a1.008,1.008,0,0,0-1.285.958V36.186a1,1,0,0,0,.576.905L53.517,40.4a1.007,1.007,0,0,0,1.424-.905V17.327A1,1,0,0,0,54.226,16.368ZM52.941,37.919,47.9,35.55V16.575l5.044,1.5Z"/><path d="M38.651,23.013c.483.091,2-1.316,2.4-1.54a1,1,0,1,0-1.2-1.6l-1.8,1.342A1.006,1.006,0,0,0,38.651,23.013Z"/><path d="M39.625,23.7l-1.283.955a1.007,1.007,0,0,0,.6,1.8c.485.07,1.5-.93,1.88-1.154A1,1,0,0,0,39.625,23.7Z"/><path d="M49.549,26.65c.483.091,2-1.316,2.4-1.541a1,1,0,1,0-1.2-1.6l-1.8,1.342A1.007,1.007,0,0,0,49.549,26.65Z"/><path d="M50.521,27.335l-1.282.956a1.007,1.007,0,0,0,.6,1.8c.485.07,1.5-.93,1.879-1.154A1,1,0,0,0,50.521,27.335Z"/></svg>
