<svg id="_x33_0" enable-background="new 0 0 62.281 61.985" height="512" viewBox="0 0 62.281 61.985" width="512" xmlns="http://www.w3.org/2000/svg"><g><circle cx="17" cy="52.985" r="1"/><path d="m62.281 61.985-.312-1.242c-.32-1.281-1.031-2.372-1.97-3.193v-13.61c1.136-.21 2-1.204 2-2.4 0-.605-.223-1.187-.628-1.636l-8.198-9.11c-.463-.514-1.126-.809-1.817-.809h-1.356v-14.182c1.161-.411 2-1.509 2-2.809 0-.949-.457-1.851-1.222-2.412l-13.381-9.812c-1.4-1.026-3.394-1.026-4.796 0l-7.111 5.215h-10.73c-.736 0-1.444.269-1.993.758l-8.147 7.242h-.62c-1.103 0-2 .897-2 2v2c0 1.103.897 2 2 2v17.5l-3.066 2.3c-.585.438-.934 1.136-.934 1.867 0 1.172.872 2.136 2 2.299v18.034zm-58.281-18h2v16h-2zm46.495 16h-15.989c.767-1.219 2.114-2 3.617-2h1.291l1.232-1.232c.977-.975 2.73-.975 3.707 0l1.232 1.232h1.291c1.504 0 2.851.782 3.619 2zm-18.495 0h-2v-16h2zm-4 0h-4v-12c0-1.103-.897-2-2-2h-8c-1.103 0-2 .897-2 2v12h-4v-16h20zm-6 0h-8v-12h8zm30.711 0c-.566-1.453-1.632-2.614-2.977-3.302.99-.896 2.67-.878 3.62.07l1.232 1.232h1.291c1.505 0 2.857.779 3.624 2zm3.166-4h-.463l-.646-.646c-.86-.86-2.051-1.354-3.268-1.354s-2.407.493-3.268 1.354l-.702.702c-.217-.023-.432-.055-.654-.055h-.463l-.646-.646c-.86-.86-2.051-1.354-3.268-1.354s-2.407.493-3.268 1.354l-.646.646h-.463c-1.567 0-3.009.59-4.123 1.565v-13.566h24v12.372c-.666-.239-1.381-.372-2.122-.372zm-4.189-23.852 8.198 9.109c.074.082.114.187.114.298 0 .245-.2.445-.445.445h-23.589c.016-.11.034-.219.034-.333 0-.731-.349-1.429-.934-1.867l-10.4-7.8h26.69c.126 0 .248.054.332.148zm-9.688-2.148v-2h2v2zm-20-2h2v2h-2zm4 0h2v2h-2zm4 0h2v2h-2zm10-2h-4v-6h4zm-6 0h-4v-6h4zm0 2h2v2h-2zm4 0h2v2h-2zm4-2v-6c0-1.103-.897-2-2-2h-10c-1.103 0-2 .897-2 2v6h-6v-10h26v10zm-17.88-12 10.88-7.771 10.879 7.771zm21.88 16v-2h2v2zm-12.216-27.602c.356-.26.776-.398 1.216-.398s.86.138 1.215.398l13.381 9.812c.253.186.404.484.404.799 0 .455-.308.838-.73.955l-14.27-10.193-14.271 10.194c-.419-.115-.729-.501-.729-.956 0-.314.151-.613.405-.799zm-19.688 5.855c.184-.163.42-.252.665-.252h8.003l-3.541 2.597c-.766.56-1.223 1.462-1.223 2.411 0 .349.071.679.182.991h-10.552zm-10.096 7.747h16v2h-16zm2 4h14v8.552c-.906-.513-2.007-.642-3.016-.39.004-.054.016-.106.016-.162v-4c0-1.103-.897-2-2-2h-4c-1.103 0-2 .897-2 2v4c0 1.103.897 2 2 2h3.001l-8.001 6zm9.001 8h-4.001v-4h4zm-12.868 13.4 14.667-11c.35-.262.765-.4 1.2-.4s.851.138 1.2.4l14.667 11c.083.062.133.163.133.267 0 .184-.149.333-.333.333h-1.667-29.667c-.184 0-.333-.149-.333-.333 0-.104.05-.205.133-.267z"/><path d="m40 45.985h-2c-1.103 0-2 .897-2 2v2c0 1.103.897 2 2 2h2c1.103 0 2-.897 2-2v-2c0-1.102-.897-2-2-2zm-2 4v-2h2l.002 2z"/><path d="m47 45.985h-2c-1.103 0-2 .897-2 2v2c0 1.103.897 2 2 2h2c1.103 0 2-.897 2-2v-2c0-1.102-.897-2-2-2zm-2 4v-2h2l.002 2z"/><path d="m54 45.985h-2c-1.103 0-2 .897-2 2v2c0 1.103.897 2 2 2h2c1.103 0 2-.897 2-2v-2c0-1.102-.897-2-2-2zm-2 4v-2h2l.002 2z"/><path d="m32 9.985h2v2h-2z"/><path d="m36 9.985h2v2h-2z"/></g></svg>