<svg id="Layer_2" viewBox="0 0 64 64" xmlns="http://www.w3.org/2000/svg" data-name="Layer 2"><path d="m7.28 30.06c-.67 0-1.26.37-1.54.93l-4.54 8.56c-.28.55-.26 1.19.06 1.72s.88.84 1.5.84h1.16v14.85c0 .97.78 1.76 1.75 1.76h26.31c.97 0 1.76-.79 1.76-1.76v-3.86h21.15c1.27 0 2.3-1.04 2.3-2.31v-12.78l.55.41c.59.45 1.28.67 1.97.67 1 0 1.98-.45 2.63-1.3 0 0 0 0 0-.01 1.07-1.45.78-3.52-.66-4.6l-15.64-11.76c-1.17-.88-2.8-.88-3.95 0l-8.5 6.38v-6.59l.33.25c.65.5 1.46.71 2.27.6.82-.11 1.54-.54 2.04-1.2 1.01-1.36.73-3.29-.62-4.3l-14.18-10.67c-1.09-.83-2.61-.83-3.7 0l-14.19 10.67c-1.34 1.01-1.62 2.94-.6 4.31.58.77 1.5 1.23 2.46 1.23.65 0 1.31-.22 1.84-.63l.35-.26v8.86h-2.34zm.15 2h3.14s.03 0 .05 0h7.08s0 0 0 0h7.78s0 0 0 0h4.72l4.26 8.05h-31.3l4.27-8.06zm17.05-2h-5.78v-6.5c0-.11.08-.19.19-.19h5.4c.11 0 .19.08.19.19zm-14.28 26.67v-9.22h6.25v9.22zm21.53 0h-13.28v-10.22c0-.55-.45-1-1-1h-8.25c-.55 0-1 .45-1 1v10.22h-2.29v-14.61h25.82zm9.04-5.62v-10.28c0-.17.14-.31.31-.31h5.96c.17 0 .31.14.31.31v10.28h-6.57zm14.41-.31c0 .17-.14.31-.3.31h-5.53v-10.28c0-1.27-1.04-2.31-2.31-2.31h-5.96c-1.27 0-2.31 1.04-2.31 2.31v10.28h-5.04v-8.99h1.15c.63 0 1.19-.32 1.51-.86.32-.53.33-1.17.04-1.71l-2.14-4.05 9.76-7.34 11.12 8.35v14.28zm-11.88-27.79c.45-.34 1.08-.34 1.54 0l15.64 11.76c.56.42.68 1.23.26 1.81-.44.57-1.24.68-1.81.25l-2.15-1.62s0 0 0 0l-12.12-9.1c-.18-.13-.39-.2-.6-.2s-.42.07-.6.2l-10.11 7.6-.96-1.81-.26-.5 11.18-8.39zm-35.23-3.14c-.49.37-1.17.24-1.5-.2-.36-.49-.27-1.15.2-1.51l14.2-10.67c.19-.14.41-.21.64-.21s.45.07.64.22l14.18 10.67c.48.36.58 1.02.22 1.51-.17.23-.43.38-.71.42-.29.04-.56-.04-.79-.21l-7.98-6-4.94-3.72c-.18-.13-.39-.2-.6-.2s-.42.07-.6.2l-12.93 9.72zm3.55-.16 9.99-7.51s9.98 7.51 9.98 7.51v9.59l-1.02.77h-.15s-.05 0-.07 0h-3.87v-6.5c0-1.21-.98-2.19-2.19-2.19h-5.4c-1.21 0-2.19.98-2.19 2.19v6.5h-5.09v-10.35z"/><path d="m28.44 45.5h-6.32c-.55 0-1 .45-1 1v6.32c0 .55.45 1 1 1h6.32c.55 0 1-.45 1-1v-6.32c0-.55-.45-1-1-1zm-1 6.32h-4.32v-4.32h4.32z"/></svg>