<svg clip-rule="evenodd" fill-rule="evenodd" stroke-linejoin="round" stroke-miterlimit="2" viewBox="0 0 510 510" xmlns="http://www.w3.org/2000/svg"><path d="m55.223 165.443-29.149 9.767c-3.666 1.228-7.633-.748-8.861-4.413l-8.849-26.409c-1.229-3.666.747-7.633 4.413-8.861l347.343-116.387c3.666-1.228 7.633.748 8.861 4.413l8.849 26.409c1.229 3.666-.747 7.633-4.413 8.861l-27.331 9.158v171.533h148.915c3.866 0 7 3.134 7 7v237.711c0 3.866-3.134 7-7 7h-432.778c-3.866 0-7-3.134-7-7zm276.863-92.771-262.863 88.079v316.474h141.916v-230.711c0-3.866 3.134-7 7-7h15.657v-97.26c0-3.866 3.134-7 7-7h66.127c3.866 0 7 3.134 7 7v97.26h18.163zm125.692 404.553h30.223v-223.711h-262.862v223.711h124.431v-146.91c0-3.866 3.134-7 7-7h94.208c3.866 0 7 3.134 7 7zm-209.982-237.711h52.127c0-22.306 0-90.26 0-90.26h-52.127zm115.774 237.711h80.208v-139.91h-80.208zm-5.639-442.586-334.069 111.938 4.401 13.134 334.069-111.938zm-173.634 164.132v222.945c0 3.866-3.134 7-7 7h-66.127c-3.866 0-7-3.134-7-7v-222.945c0-3.866 3.134-7 7-7h66.127c3.866 0 7 3.134 7 7zm-14 40.743v-33.743h-52.127v33.743zm0 63.73v-49.73h-52.127v49.73zm0 55.125v-41.125h-52.127v41.125zm-52.127 14v42.347h52.127v-42.347zm203.937-76.937v59.428c0 3.866-3.134 7-7 7h-59.428c-3.866 0-7-3.134-7-7v-59.428c0-3.866 3.134-7 7-7h59.428c3.866 0 7 3.134 7 7zm-14 7h-45.428v45.428h45.428z"/></svg>