<svg height="512" viewBox="0 0 64 64" width="512" xmlns="http://www.w3.org/2000/svg"><g id="Roller_brush" data-name="Roller brush"><path d="m63.232 39.428a6.316 6.316 0 0 0 -2.185-4.35l-8.371-7.232.235-.273a5.006 5.006 0 0 0 -.517-7.054l-22.344-19.302a5 5 0 0 0 -7.05.515l-4.407 5.1a5.01 5.01 0 0 0 .517 7.056l22.34 19.302a5 5 0 0 0 7.054-.516l.236-.272 8.372 7.234a.337.337 0 0 1 .116.231.342.342 0 0 1 -.081.248l-3.688 4.27a.349.349 0 0 1 -.386.095l-24.442-9.873a6.351 6.351 0 0 0 -7.2 1.74l-5.223 6.053-1.272-1.1a.985.985 0 0 0 -.726-.24 1 1 0 0 0 -.684.343l-11.391 13.185a5.691 5.691 0 0 0 8.615 7.44l11.39-13.186a1 1 0 0 0 -.1-1.41l-1.272-1.1 5.227-6.051a.338.338 0 0 1 .384-.092l24.441 9.873a6.365 6.365 0 0 0 7.2-1.742l3.68-4.27a6.319 6.319 0 0 0 1.532-4.622zm-20.476-7.752-22.344-19.3a3.007 3.007 0 0 1 -.312-4.236l4.406-5.1a3 3 0 0 1 4.235-.308l22.345 19.3a3.007 3.007 0 0 1 .309 4.235l-4.406 5.1a3 3 0 0 1 -4.233.309zm-33.52 29.046a3.691 3.691 0 1 1 -5.587-4.822l10.737-12.435 5.587 4.827zm50.954-17.979-3.69 4.272a4.363 4.363 0 0 1 -4.935 1.193l-24.44-9.873a2.34 2.34 0 0 0 -2.647.641l-5.226 6.05-1.531-1.326 5.227-6.051a4.367 4.367 0 0 1 4.934-1.192l24.442 9.873a2.347 2.347 0 0 0 2.647-.641l3.691-4.271a2.345 2.345 0 0 0 -.243-3.3l-8.372-7.232 1.321-1.53 8.373 7.233a4.367 4.367 0 0 1 .449 6.151z"/></g></svg>