<svg id="icons" height="512" viewBox="0 0 60 60" width="512" xmlns="http://www.w3.org/2000/svg"><path d="m4.337 58.864a4.148 4.148 0 0 0 5.853-.151l10.21-10.739a2.77 2.77 0 0 0 1.25.3 3.24 3.24 0 0 0 2.315-1.019 3.212 3.212 0 0 0 .9-2.282 2.693 2.693 0 0 0 -.834-1.905l-1.739-1.647 4.171-4.344 18.456 10.2a6.24 6.24 0 0 0 7.545-1.162l6.112-6.435a5.177 5.177 0 0 0 -.194-7.327l-2.312-2.187 1.567-1.649a4 4 0 0 0 -.152-5.655l-23.006-21.762a4.006 4.006 0 0 0 -5.651.15l-1.573 1.65-1.555-1.47a2.051 2.051 0 0 0 -2.893.077l-1.441 1.515a2.047 2.047 0 0 0 .076 2.9l1.558 1.464-1.571 1.649a3.993 3.993 0 0 0 .15 5.653l23.005 21.771a4.008 4.008 0 0 0 5.651-.151l1.565-1.645 1.567 1.524-5.578 5.818-20.431-11.505a3.082 3.082 0 0 0 -3.762.568l-5.8 6.1-1.751-1.658a3.056 3.056 0 0 0 -4.172.3 3.227 3.227 0 0 0 -.907 2.292 2.729 2.729 0 0 0 .376 1.3l-10.204 10.741a4.132 4.132 0 0 0 .153 5.849zm18.478-54.464 1.51-1.517 1.552 1.469-1.494 1.573zm25.97 30.531a2 2 0 0 1 -2.826.075l-23.005-21.771a1.994 1.994 0 0 1 -.076-2.823l7.4-7.79a2.005 2.005 0 0 1 2.822-.074l23.009 21.768a2 2 0 0 1 .077 2.826zm-23.74-2.491a1.089 1.089 0 0 1 1.33-.2l20.43 11.511a2.045 2.045 0 0 0 2.491-.373l5.518-5.81a2.042 2.042 0 0 0 -.076-2.893l-1.552-1.475 1.505-1.584 2.315 2.191a3.176 3.176 0 0 1 .12 4.5l-6.112 6.433a4.244 4.244 0 0 1 -5.129.789l-18.454-10.199a2.046 2.046 0 0 0 -2.477.38l-4.118 4.335-1.588-1.5zm-11.725 4.752c.3-.311.961-.595 1.355-.226l7.982 7.559c.389.369.177 1.019-.142 1.353a1.042 1.042 0 0 1 -1.365.224l-7.984-7.561c-.392-.372-.166-1.016.154-1.349zm-10.733 14.329 10.126-10.655 6.148 5.822-10.12 10.647a2.145 2.145 0 0 1 -3.029.076l-3.046-2.872a2.134 2.134 0 0 1 -.079-3.018z"/></svg>