<svg id="Capa_1" enable-background="new 0 0 512 512" height="512" viewBox="0 0 512 512" width="512" xmlns="http://www.w3.org/2000/svg"><g><path d="m145.551 230.939c-24.892 0-45.143 20.251-45.143 45.143s20.251 45.143 45.143 45.143c24.893 0 45.144-20.251 45.144-45.143-.001-24.893-20.252-45.143-45.144-45.143zm0 70.286c-13.863 0-25.143-11.279-25.143-25.143s11.279-25.143 25.143-25.143 25.144 11.279 25.144 25.143c-.001 13.863-11.28 25.143-25.144 25.143z"/><path d="m448.157 268.4-30.122-25.092c-1.798-1.498-4.062-2.308-6.402-2.308h-19.633v-10.102c0-5.522-4.968-9.898-10.49-9.898h-30.51v-20.225c0-5.523-4.131-9.775-9.653-9.775h-100.347v-29.052c24-12.603 40-37.661 40-66.469 0-25.453 0-42.523 0-85.479 0-5.523-4.416-10-9.939-10h-130.531c-5.522 0-9.53 4.477-9.53 10v85.479c0 28.808 16 53.866 40 66.469v29.052h-70.633c-22.123 0-40.367 17.774-40.367 39.898v10.102h-40v-20.143c0-5.522-4.477-10-10-10s-10 4.478-10 10v110.448c0 5.522 4.477 10 10 10s10-4.478 10-10v-20.305h40v10.266c0 20.85 16.112 38.031 36.472 39.939l-45.817 137.633c-2.117 6.36 2.615 13.162 9.549 13.162h80.326c4.305 0 8.126-2.591 9.487-6.675l24.497-73.325h54.755c17.298 0 32.594-11.189 38.063-27.599.065-.195.124-.668.177-.867l11.24-42.534h62.597c5.522 0 9.653-4.09 9.653-9.612v-20.388h30.51c5.522 0 10.49-4.212 10.49-9.734v-10.266h19.633c2.34 0 4.604-.728 6.401-2.226l30.122-25.056c4.796-3.995 4.801-11.319.002-15.318zm-297.157-173.053v-20.452c19.208 3.133 24.57 15.392 54.913 15.392 30.803 0 36.199-12.696 55.087-15.392v20.452c0 30.474-24.526 55.266-55 55.266s-55-24.793-55-55.266zm110-75.347v34.741c-12 1.352-20.085 5.126-27.019 8.54-7.634 3.759-14.212 7.005-28.201 7.005s-20.34-3.246-27.973-7.005c-6.934-3.413-14.807-7.188-26.807-8.54v-34.741zm-70 149.111c11.944 2.346 16.27 2.697 30 0v21.889h-30zm-171 121.889v-30h40v30zm113.322 201h-59.244l43.538-131h59.243zm114.947-93.854c-2.817 8.085-10.418 13.854-19 13.854h-48.089l16.762-51h60.112zm82.731-57.146c-13.71 0-217.395 0-230.633 0-11.096 0-20.367-8.639-20.367-19.734 0-25.171 0-62.04 0-90.367 0-11.096 9.271-19.899 20.367-19.899h230.633zm41-30h-21v-70h21zm36.013-20h-16.013v-30h16.013l18.122 15z"/><path d="m478.949 237.97 20.081-20.082c3.905-3.905 3.905-10.237 0-14.143-3.906-3.904-10.238-3.904-14.143 0l-20.081 20.082c-3.905 3.905-3.905 10.237 0 14.143 3.907 3.904 10.238 3.905 14.143 0z"/><path d="m478.949 304.153c-3.906-3.904-10.236-3.904-14.143 0-3.905 3.905-3.905 10.237 0 14.143l20.081 20.081c3.908 3.905 10.236 3.904 14.143 0 3.905-3.905 3.905-10.237 0-14.143z"/><path d="m502 261h-20.082c-5.522 0-10 4.478-10 10s4.478 10 10 10h20.082c5.522 0 10-4.478 10-10s-4.478-10-10-10z"/><path d="m301.184 241h-80.326c-5.522 0-10 4.477-10 10 0 5.522 4.478 10 10 10h80.326c5.522 0 10-4.478 10-10 0-5.523-4.478-10-10-10z"/><path d="m301.184 291h-80.326c-5.522 0-10 4.478-10 10s4.478 10 10 10h80.326c5.522 0 10-4.478 10-10s-4.478-10-10-10z"/></g></svg>