<svg id="Layer_1" enable-background="new 0 0 100 100" viewBox="0 0 100 100" xmlns="http://www.w3.org/2000/svg"><path d="m95 40c0 1.1-.9 2-2 2h-6c-1.1 0-2-.9-2-2s.9-2 2-2h6c1.1 0 2 .9 2 2zm-14-2h-1c-1.1 0-2 .9-2 2s.9 2 2 2h1c1.1 0 2-.9 2-2s-.9-2-2-2zm4-4.1c.2 0 .4 0 .6-.1l5.7-1.8c1.1-.3 1.6-1.4 1.3-2.5s-1.4-1.6-2.5-1.3l-5.7 1.8c-1.1.3-1.6 1.4-1.3 2.5.2.8 1 1.4 1.9 1.4zm-6.7 2c.2 0 .4 0 .6-.1l1-.3c1.1-.3 1.6-1.4 1.3-2.5s-1.5-1.6-2.5-1.3l-1 .3c-1.1.3-1.6 1.4-1.3 2.5.2.9 1 1.4 1.9 1.4zm13 12.1-5.7-1.8c-1.1-.3-2.2.3-2.5 1.3-.3 1.1.3 2.2 1.3 2.5l5.7 1.8c.2.1.4.1.6.1.9 0 1.6-.6 1.9-1.4.3-1-.2-2.2-1.3-2.5zm-11.5-3.5-1-.3c-1.1-.3-2.2.3-2.5 1.3-.3 1.1.3 2.2 1.3 2.5l1 .3c.2.1.4.1.6.1.9 0 1.6-.6 1.9-1.4.4-1.1-.2-2.2-1.3-2.5zm.2 48.5c0 1.1-.9 2-2 2h-40.5c-9.7 0-17.7-7.5-18.4-17h-4.1c-.7 0-1.3-.3-1.6-.8-.4-.5-.5-1.2-.2-1.8l9-25.3h-7.2c-1.1 0-2-.9-2-2v-2h-6c-1.1 0-2-.9-2-2v-8c0-1.1.9-2 2-2h6v-2c0-1.1.9-2 2-2h14v-3.3c-3.4-.9-6-4-6-7.7v-12.1c0-1.1.9-2 2-2h12c1.1 0 2 .9 2 2v12c0 3.7-2.6 6.8-6 7.7v3.3h24 10c1.1 0 2 .9 2 2v6h5c1.1 0 2 .9 2 2s-.9 2-2 2h-5v6c0 1.1-.9 2-2 2h-10-6.6l-3.5 10.6c-.3.8-1 1.4-1.9 1.4h-10.9l-5.2 14.7c-.3.8-1 1.3-1.9 1.3h-3.9c.8 7.3 6.9 13 14.4 13h40.5c1.1 0 2 .9 2 2zm-53-84v5h8v-5zm4 14c2.2 0 4-1.8 4-4v-1h-8v1c0 2.2 1.8 4 4 4zm15.2 27h-7.8l-2.7 8h7.8zm18.8-16h-6v12h6zm-52 8v-4h-4v4zm4 4h8 12 12 6v-12h-38v2 8zm.8 28h7.8l8.6-24h-7.8z"/></svg>