<svg id="Layer_1" height="512" viewBox="0 0 100 100" width="512" xmlns="http://www.w3.org/2000/svg" data-name="Layer 1"><path d="m47.1 13.71h-23.23a1.45 1.45 0 0 1 -1.45-1.45v-5.81a1.45 1.45 0 0 1 1.45-1.45h23.23a1.45 1.45 0 0 1 1.45 1.45v5.81a1.45 1.45 0 0 1 -1.45 1.45zm-21.78-2.9h20.33v-2.91h-20.33z"/><path d="m39.84 31.13h-8.71a5.82 5.82 0 0 1 -5.81-5.81v-13.06a1.45 1.45 0 0 1 1.45-1.45h17.42a1.45 1.45 0 0 1 1.46 1.45v13.06a5.82 5.82 0 0 1 -5.81 5.81zm-11.61-17.42v11.61a2.91 2.91 0 0 0 2.9 2.91h8.71a2.91 2.91 0 0 0 2.9-2.91v-11.61z"/><path d="m38.39 36.94h-5.81a1.45 1.45 0 0 1 -1.45-1.46v-5.8a1.45 1.45 0 0 1 1.45-1.45h5.81a1.45 1.45 0 0 1 1.45 1.45v5.8a1.45 1.45 0 0 1 -1.45 1.46zm-4.39-2.94h2.91v-2.9h-2.91z"/><path d="m18.06 51.45h-5.8a1.45 1.45 0 0 1 -1.45-1.45v-5.81a1.45 1.45 0 0 1 1.45-1.45h5.8a1.45 1.45 0 0 1 1.46 1.45v5.81a1.45 1.45 0 0 1 -1.46 1.45zm-4.35-2.9h2.9v-2.9h-2.9z"/><path d="m9.35 54.35a4.35 4.35 0 0 1 -4.35-4.35v-5.81a4.36 4.36 0 0 1 8.71 0v5.81a4.36 4.36 0 0 1 -4.36 4.35zm0-11.61a1.46 1.46 0 0 0 -1.45 1.45v5.81a1.46 1.46 0 0 0 2.91 0v-5.81a1.46 1.46 0 0 0 -1.46-1.45z"/><path d="m29.68 80.48h-11.62a1.45 1.45 0 0 1 -1.33-2l8.71-20.32a1.44 1.44 0 0 1 1.33-.88h11.62a1.45 1.45 0 0 1 1.33 2l-8.72 20.32a1.44 1.44 0 0 1 -1.32.88zm-9.42-2.9h8.46l7.46-17.42h-8.45z"/><path d="m39.84 68.87h-5.2a1.45 1.45 0 0 1 -1.33-2l3.74-8.71a1.45 1.45 0 0 1 1.34-.88h8.71a1.45 1.45 0 0 1 1.45 1.45v1.45a8.72 8.72 0 0 1 -8.71 8.69zm-3-2.9h3a5.82 5.82 0 0 0 5.81-5.81h-6.31z"/><path d="m18.06 95a1.45 1.45 0 1 1 0-2.9c1-.59 3.09-6.85 4.39-13.35a1.47 1.47 0 0 1 1.7-1.14 1.44 1.44 0 0 1 1.14 1.71c-2.08 10.4-4.51 15.68-7.23 15.68z"/><path d="m65.88 60.16h-41c-4.58 0-8.31-4.13-8.31-9.2v-7.72c0-5.08 3.73-9.21 8.31-9.21h41c5 0 9.45 3.53 11 8.79l-1.3.72 1.42-.42a8.22 8.22 0 0 1 .21.82 11.65 11.65 0 0 1 .37 3.16 12.1 12.1 0 0 1 -.4 3.29c0 .13-.1.41-.18.68l-.09.3a13.1 13.1 0 0 1 -2.67 4.89 11.25 11.25 0 0 1 -8.36 3.9zm-41-23.22c-3 0-5.4 2.82-5.4 6.3v7.76c0 3.47 2.42 6.3 5.4 6.3h41a8.23 8.23 0 0 0 6.17-2.91 10.19 10.19 0 0 0 2.08-3.8l.09-.33a4.12 4.12 0 0 0 .13-.47 9.77 9.77 0 0 0 .33-2.65 9.13 9.13 0 0 0 -.3-2.51 6.18 6.18 0 0 0 -.16-.63l-.1-.34c-1.2-4-4.51-6.68-8.24-6.68z"/><path d="m79 51.45h-3.22a1.45 1.45 0 0 1 -1.4-1.84 9.23 9.23 0 0 0 .3-2.51 9.13 9.13 0 0 0 -.3-2.51 1.47 1.47 0 0 1 .24-1.27 1.45 1.45 0 0 1 1.16-.58h3.22a4.36 4.36 0 1 1 0 8.71zm-1.51-2.9h1.51a1.45 1.45 0 1 0 0-2.9h-1.48c0 .45.06.93.06 1.45s-.02.99-.06 1.45z"/><path d="m93.55 48.55h-5.81a1.45 1.45 0 1 1 0-2.9h5.81a1.45 1.45 0 0 1 0 2.9z"/><path d="m84.84 45.65a1.49 1.49 0 0 1 -1-.43 1.46 1.46 0 0 1 0-2l5.81-5.81a1.45 1.45 0 1 1 2 2l-5.8 5.81a1.49 1.49 0 0 1 -1.01.43z"/><path d="m90.65 57.26a1.41 1.41 0 0 1 -1-.43l-5.84-5.83a1.46 1.46 0 0 1 2.06-2l5.8 5.81a1.44 1.44 0 0 1 0 2 1.41 1.41 0 0 1 -1.02.45z"/></svg>