<svg id="Capa_1" enable-background="new 0 0 512.003 512.003" height="512" viewBox="0 0 512.003 512.003" width="512" xmlns="http://www.w3.org/2000/svg"><g id="XMLID_351_"><path id="XMLID_352_" d="m381.511 261.063h-30.163v-10.081c0-5.522-4.478-10-10-10h-41.925l-15.189-39.914 25.061-34.744c1.956-2.711 2.427-6.222 1.256-9.353-3.345-8.943-53.038-141.798-56.282-150.472-1.935-5.174-7.698-7.798-12.869-5.863l-112.855 42.211c-5.17 1.933-7.8 7.698-5.863 12.869l56.283 150.473c1.171 3.132 3.83 5.471 7.086 6.233l41.872 9.808 7.137 18.752h-65.447c-4.648-22.885-24.926-40.163-49.162-40.163-5.522 0-10 4.477-10 10v36.02l-24.265 24.265h-76.185c-5.523 0-10 4.477-10 10v50.205c0 5.522 4.477 10 10 10 36.199 0 64.589 31.226 61.081 67.215l-20.631 91.273c-1.412 6.249 3.345 12.205 9.754 12.205h70.286c4 0 7.615-2.384 9.191-6.06l30.122-70.285c1.592-3.714.792-8.021-2.026-10.915l-16.279-16.723 4.969-47.212c10.46-2.088 18.976-9.615 22.471-19.498h12.482c4.941 39.565 38.76 70.285 79.641 70.285 4.045 0 7.69-2.437 9.238-6.173s.693-8.038-2.167-10.897c-4.139-5.488-27.192-20.017-27.192-52.166v-1.049h90.407c5.522 0 10-4.478 10-10v-10.082h30.163c5.522 0 10-4.478 10-10v-40.164c0-5.522-4.477-10-10-10zm-142.472-238.191 13.617 36.405-87.55 52.773-20.189-53.974zm5.685 187.277c-1.182-3.107-3.829-5.422-7.065-6.18l-41.836-9.799-23.589-63.064 87.551-52.773 30.159 80.632-25.082 34.774c-1.968 2.728-2.433 6.263-1.235 9.406l14.398 37.837h-21.566zm-94.151 131.241c-5.559 0-10.081-4.523-10.081-10.081 0-5.56 4.523-10.082 10.081-10.082 5.56 0 10.082 4.522 10.082 10.082 0 5.559-4.523 10.081-10.082 10.081zm92.353 43.227c-16.287-8.63-28.161-24.509-31.312-43.308h19.327c.134.985-1.324 21.887 11.985 43.308zm88.422-63.308h-152.409c-4.132-11.685-15.284-20.082-28.366-20.082-16.587 0-30.081 13.495-30.081 30.082 0 11.567 6.566 21.624 16.165 26.655l-5.538 52.624c-.311 2.954.708 5.894 2.78 8.023l14.895 15.301-24.896 58.091h-51.18c19.157-84.863 18.077-79.698 18.195-80.805 4.738-44.501-27.393-83.931-70.912-89.278v-30.815h70.326c2.652 0 5.195-1.054 7.071-2.929l30.123-30.122c1.875-1.876 2.929-4.419 2.929-7.071v-28.459c11.732 4.134 20.163 15.33 20.163 28.459 0 5.523 4.478 10 10 10h170.734v60.326zm40.163-20.082h-20.163v-20.164h20.163z"/><path id="XMLID_360_" d="m421.673 281.146c-5.599 0-10 4.567-10 10.001.001 5.508 4.489 10 10.001 10 5.518-.001 10.001-4.499 10-10.001 0-5.44-4.409-10.001-10.001-10z"/><path id="XMLID_361_" d="m461.839 301.23c-5.599 0-10 4.566-10 10 0 5.509 4.488 10 10 10 5.518 0 10-4.497 10-9.999 0-5.44-4.408-10.001-10-10.001z"/><circle id="XMLID_362_" cx="502" cy="331.311" r="10.001"/><path id="XMLID_363_" d="m461.839 261.064c-5.599.001-10 4.567-10 10.001.001 5.508 4.488 9.999 10.001 9.999 5.519 0 9.999-4.498 9.999-10 0-5.44-4.408-10-10-10z"/><path id="XMLID_364_" d="m502 281.146c-5.599 0-10 4.566-10 10 0 5.509 4.489 10 10.001 10 5.518-.001 10-4.498 9.999-10.001 0-5.439-4.409-10-10-9.999z"/><path id="XMLID_365_" d="m502.001 260.98c5.599 0 9.999-4.566 9.999-9.999 0-5.509-4.487-10-9.999-10-5.519 0-9.999 4.498-9.999 10 0 5.44 4.409 9.999 9.999 9.999z"/></g></svg>