<svg id="Layer_1" enable-background="new 0 0 512 512" viewBox="0 0 512 512" xmlns="http://www.w3.org/2000/svg"><path d="m491 17.06h-235-235c-3.31 0-6 2.69-6 6v465.89c0 3.31 2.69 6 6 6h235c3.31 0 6-2.69 6-6v-95.86h195.83c21.6 0 39.17-24.33 39.17-54.24v-315.79c0-3.32-2.69-6-6-6zm-57.71 279.54c-8.92 9.95-14.64 25.18-14.64 42.24s5.72 32.29 14.64 42.24h-214.77c-14.73 0-27.17-19.34-27.17-42.24s12.44-42.24 27.17-42.24zm-183.29 186.34h-223v-453.88h223v255.54h-31.48c-10.9 0-20.98 5.94-28.4 16.73-6.95 10.1-10.77 23.42-10.77 37.51s3.83 27.41 10.77 37.51c7.42 10.79 17.5 16.73 28.4 16.73h31.48zm207.83-101.86c-14.73 0-27.17-19.34-27.17-42.24s12.44-42.24 27.17-42.24 27.17 19.35 27.17 42.24-12.44 42.24-27.17 42.24zm0-96.48h-195.83v-255.54h223v270.77c-7.05-9.42-16.63-15.23-27.17-15.23zm-55.95-179.64-12.68-5.18c-2.4-.98-3.98-2.56-4.96-4.96l-5.18-12.69c-.92-2.26-3.12-3.73-5.55-3.73s-4.63 1.47-5.55 3.73l-5.18 12.69c-.98 2.4-2.56 3.97-4.96 4.96l-12.69 5.18c-2.26.92-3.73 3.12-3.73 5.55s1.47 4.63 3.73 5.55l12.69 5.18c2.4.98 3.97 2.55 4.96 4.96l5.18 12.69c.92 2.26 3.12 3.73 5.55 3.73s4.63-1.47 5.55-3.73l5.18-12.69c.98-2.4 2.55-3.97 4.95-4.95l12.69-5.18c2.26-.92 3.73-3.12 3.73-5.55s-1.48-4.63-3.73-5.56zm-28.38 15.85c-2.12-4.64-5.65-8.17-10.29-10.29 4.64-2.12 8.17-5.65 10.29-10.29 2.12 4.64 5.65 8.17 10.29 10.29-4.64 2.12-8.17 5.65-10.29 10.29zm28.38 76.36-12.68-5.18c-2.4-.98-3.98-2.56-4.96-4.96l-5.18-12.69c-.92-2.26-3.12-3.73-5.55-3.73s-4.63 1.47-5.55 3.73l-5.18 12.69c-.98 2.4-2.55 3.97-4.96 4.96l-12.69 5.18c-2.26.92-3.73 3.12-3.73 5.55s1.47 4.63 3.73 5.55l12.69 5.18c2.4.98 3.97 2.55 4.96 4.95l5.18 12.69c.92 2.26 3.12 3.73 5.55 3.73s4.63-1.47 5.55-3.73l5.18-12.69c.98-2.4 2.55-3.97 4.95-4.95l12.69-5.18c2.26-.92 3.73-3.12 3.73-5.55s-1.48-4.63-3.73-5.55zm-28.38 15.85c-2.12-4.64-5.66-8.17-10.29-10.29 4.64-2.12 8.17-5.65 10.29-10.29 2.12 4.64 5.65 8.17 10.29 10.29-4.64 2.12-8.17 5.65-10.29 10.29zm-38.9-150.38-12.17-4.97c-2.24-.91-3.7-2.38-4.62-4.62l-4.97-12.17c-.92-2.26-3.12-3.73-5.55-3.73s-4.63 1.47-5.55 3.73l-4.97 12.17c-.92 2.24-2.38 3.71-4.62 4.62l-12.17 4.97c-2.26.92-3.73 3.12-3.73 5.55s1.47 4.63 3.73 5.55l12.17 4.97c2.24.91 3.7 2.38 4.62 4.62l4.97 12.17c.92 2.26 3.12 3.73 5.55 3.73s4.63-1.47 5.55-3.73l4.97-12.17c.91-2.24 2.38-3.7 4.62-4.62l12.17-4.97c2.26-.92 3.73-3.12 3.73-5.55s-1.47-4.63-3.73-5.55zm-27.31 14.85c-2-4.11-5.18-7.29-9.29-9.29 4.11-2 7.29-5.18 9.29-9.29 2 4.11 5.18 7.29 9.3 9.29-4.12 2-7.3 5.17-9.3 9.29zm27.31 73.58-12.17-4.97c-2.24-.91-3.7-2.38-4.62-4.62l-4.97-12.17c-.92-2.26-3.12-3.73-5.55-3.73s-4.63 1.47-5.55 3.73l-4.97 12.17c-.92 2.24-2.38 3.71-4.62 4.62l-12.17 4.97c-2.26.92-3.73 3.12-3.73 5.55s1.47 4.63 3.73 5.55l12.17 4.97c2.24.91 3.7 2.38 4.62 4.62l4.97 12.17c.92 2.26 3.12 3.73 5.55 3.73s4.63-1.47 5.55-3.73l4.97-12.17c.91-2.24 2.38-3.7 4.62-4.62l12.17-4.97c2.26-.92 3.73-3.12 3.73-5.55s-1.47-4.63-3.73-5.55zm-27.31 14.85c-2-4.11-5.18-7.29-9.29-9.29 4.11-2 7.29-5.18 9.29-9.29 2 4.11 5.18 7.29 9.29 9.29-4.11 2-7.29 5.17-9.29 9.29zm27.31 73.58-12.17-4.97c-2.24-.92-3.71-2.38-4.62-4.62l-4.97-12.17c-.92-2.26-3.12-3.73-5.55-3.73s-4.63 1.47-5.55 3.73l-4.97 12.17c-.92 2.24-2.38 3.7-4.62 4.62l-12.17 4.97c-2.26.92-3.73 3.12-3.73 5.55s1.47 4.63 3.73 5.55l12.17 4.97c2.24.91 3.7 2.38 4.62 4.62l4.97 12.17c.92 2.26 3.12 3.73 5.55 3.73s4.63-1.47 5.55-3.73l4.97-12.17c.91-2.24 2.38-3.7 4.62-4.62l12.17-4.97c2.26-.92 3.73-3.12 3.73-5.55s-1.47-4.63-3.73-5.55zm-27.31 14.85c-2-4.11-5.18-7.29-9.29-9.29 4.11-2 7.29-5.18 9.29-9.29 2 4.11 5.18 7.29 9.29 9.29-4.11 2-7.29 5.18-9.29 9.29zm159.73-191.71-12.17-4.97c-2.24-.91-3.7-2.38-4.62-4.62l-4.97-12.17c-.92-2.26-3.12-3.73-5.55-3.73s-4.63 1.47-5.55 3.73l-4.97 12.17c-.92 2.24-2.38 3.71-4.62 4.62l-12.17 4.97c-2.26.92-3.73 3.12-3.73 5.55s1.47 4.63 3.73 5.55l12.17 4.97c2.24.91 3.7 2.38 4.62 4.62l4.97 12.17c.92 2.26 3.12 3.73 5.55 3.73s4.63-1.47 5.55-3.73l4.97-12.17c.91-2.24 2.38-3.7 4.62-4.62l12.17-4.97c2.26-.92 3.73-3.12 3.73-5.55s-1.48-4.63-3.73-5.55zm-27.31 14.85c-2-4.11-5.18-7.29-9.3-9.29 4.11-2 7.29-5.18 9.3-9.29 2 4.11 5.18 7.29 9.3 9.29-4.12 2-7.3 5.17-9.3 9.29zm27.31 73.58-12.17-4.97c-2.24-.91-3.7-2.38-4.62-4.62l-4.97-12.17c-.92-2.26-3.12-3.73-5.55-3.73s-4.63 1.47-5.55 3.73l-4.97 12.17c-.92 2.24-2.38 3.71-4.62 4.62l-12.17 4.97c-2.26.92-3.73 3.12-3.73 5.55s1.47 4.63 3.73 5.55l12.17 4.97c2.24.91 3.7 2.38 4.62 4.62l4.97 12.17c.92 2.26 3.12 3.73 5.55 3.73s4.63-1.47 5.55-3.73l4.97-12.17c.91-2.24 2.38-3.7 4.62-4.62l12.17-4.97c2.26-.92 3.73-3.12 3.73-5.55s-1.48-4.63-3.73-5.55zm-27.31 14.85c-2-4.11-5.18-7.29-9.29-9.29 4.11-2 7.29-5.18 9.29-9.29 2 4.11 5.18 7.29 9.29 9.29-4.11 2-7.29 5.17-9.29 9.29zm27.31 73.58-12.17-4.97c-2.24-.92-3.71-2.38-4.62-4.62l-4.97-12.17c-.92-2.26-3.12-3.73-5.55-3.73s-4.63 1.47-5.55 3.73l-4.97 12.17c-.91 2.24-2.38 3.7-4.62 4.62l-12.17 4.97c-2.26.92-3.73 3.12-3.73 5.55s1.47 4.63 3.73 5.55l12.17 4.97c2.24.91 3.7 2.38 4.62 4.62l4.97 12.17c.92 2.26 3.12 3.73 5.55 3.73s4.63-1.47 5.55-3.73l4.97-12.17c.91-2.24 2.38-3.7 4.62-4.62l12.17-4.97c2.26-.92 3.73-3.12 3.73-5.55s-1.48-4.63-3.73-5.55zm-27.31 14.85c-2-4.11-5.18-7.29-9.29-9.29 4.11-2 7.29-5.18 9.29-9.29 2 4.11 5.18 7.29 9.29 9.29-4.11 2-7.29 5.18-9.29 9.29z"/></svg>