<svg id="Capa_1" enable-background="new 0 0 512 512" height="512" viewBox="0 0 512 512" width="512" xmlns="http://www.w3.org/2000/svg"><g><path d="m503.897 58.073c-2.435-16.776-16.513-29.458-33.479-30.156-1.4-.057-2.774-.111-4.133-.164v-20.253c0-4.142-3.358-7.5-7.5-7.5h-319.78c-2.078 0-4.062.862-5.48 2.38l-70.7 75.68c-1.298 1.389-2.02 3.219-2.02 5.12v303.904c-31.042 3.72-55.19 30.198-55.19 62.226 0 34.567 28.123 62.69 62.69 62.69h335.29c34.567 0 62.69-28.123 62.69-62.69v-291.917c1.377-.054 2.756-.102 4.133-.159 16.963-.686 31.044-13.364 33.48-30.148 3.317-22.897 3.317-46.115-.001-69.013zm-377.139 15.586c-13.82-4.284-25.546-5.215-34.996-4.603l41.73-44.668c.984 20.783-3.742 39.657-6.734 49.271zm362.294 51.274c-1.399 9.638-9.491 16.919-19.245 17.314-67.737 2.778-136.428 2.778-204.169 0-9.752-.395-17.839-7.674-19.231-17.312-3.111-21.468-3.111-43.24 0-64.712 1.391-9.633 9.481-16.916 19.234-17.318 48.733-1.994 98.158-2.557 146.897-1.675 4.15.116 7.56-3.221 7.634-7.363.075-4.141-3.221-7.56-7.363-7.635-49.035-.888-98.756-.321-147.784 1.686-16.968.699-31.042 13.384-33.464 30.158-.702 4.843-1.246 9.7-1.651 14.565-31.624 5.72-55.549 33.748-55.549 66.462 0 37.241 30.297 67.538 67.538 67.538h104.811v11.918h-10.627c-11.473 0-20.806 9.333-20.806 20.806 0 9.951 7.026 18.283 16.376 20.32-.796 24.525-.73 74.346.038 90.924.596 12.88 10.754 23.282 23.629 24.194 4.115.292 8.26.438 12.406.438s8.293-.146 12.411-.438c12.866-.912 23.024-11.311 23.63-24.193.769-16.607.832-66.421.033-90.924 9.35-2.037 16.377-10.369 16.377-20.321 0-11.473-9.333-20.806-20.806-20.806h-10.625v-12.017c0-23.124-18.815-41.936-41.942-41.936h-104.903c-14.062 0-25.503-11.44-25.503-25.503 0-9.7 5.606-18.37 13.873-22.658.354 3.552.778 7.099 1.291 10.638 2.423 16.785 16.5 29.466 33.465 30.152 34.077 1.398 68.382 2.097 102.698 2.096 27.894 0 55.792-.47 83.559-1.394v291.373c0 26.296-21.394 47.69-47.69 47.69-19.281 0-35.913-11.508-43.422-28.01h43.347c.026 0 .051.002.077.002 22.709 0 41.185-18.475 41.185-41.185 0-22.699-18.459-41.167-41.155-41.184-.011 0-.021-.004-.032-.004h-239.91c-4.142 0-7.5 3.358-7.5 7.5s3.358 7.5 7.5 7.5h199.286c-13.489 11.508-22.067 28.611-22.067 47.69s8.578 36.182 22.067 47.69h-294.666c-26.296 0-47.69-21.394-47.69-47.69s21.394-47.69 47.69-47.69h65.38c4.142 0 7.5-3.358 7.5-7.5s-3.358-7.5-7.5-7.5h-57.88v-298.898c7.042-3.029 25.031-8.06 52.944 2.478.872.329 1.767.485 2.647.485 2.96 0 5.757-1.765 6.943-4.662.608-1.485 13.766-34.271 9.423-71.022h303.523v12.211c-2.877-.094-5.683-.181-8.417-.258-4.107-.096-7.592 3.144-7.709 7.285-.117 4.14 3.144 7.592 7.285 7.709 8.361.237 17.314.55 27.364.957 9.753.401 17.848 7.687 19.247 17.322 3.109 21.468 3.109 43.24-.002 64.707zm-247.151 54.672h104.903c14.856 0 26.942 12.083 26.942 26.936v12.017h-12.035v-12.017c0-8.216-6.688-14.901-14.907-14.901h-104.903c-28.97 0-52.538-23.568-52.538-52.538 0-24.243 16.891-45.164 39.753-50.938-.076 4.161-.041 8.323.099 12.483-16.246 5.402-27.816 20.882-27.816 38.455-.001 22.334 18.168 40.503 40.502 40.503zm146.882 170.305c-.249 5.287-4.421 9.556-9.706 9.93-7.534.534-15.17.534-22.697 0-5.289-.375-9.461-4.641-9.705-9.925-.818-17.664-.776-66.542-.028-89.744h42.164c.794 24.024.732 73.331-.028 89.739zm10.589-104.74h-63.288c-3.202 0-5.806-2.604-5.806-5.806s2.604-5.806 5.806-5.806h63.288c3.201 0 5.806 2.604 5.806 5.806s-2.605 5.806-5.806 5.806zm-43.468 204.14c0-8.817 2.414-17.077 6.603-24.17-.057.883-.096 1.771-.096 2.668 0 9.936 3.536 19.061 9.417 26.183h-15.692c-.15-1.541-.232-3.101-.232-4.681zm47.615 4.68c-14.403-.042-26.108-11.771-26.108-26.183 0-14.438 11.747-26.185 26.185-26.185s26.185 11.747 26.185 26.185-11.747 26.185-26.185 26.185c-.001 0-.001 0-.002 0v-.002z"/></g></svg>