<?xml version="1.0" encoding="utf-8"?>
<!-- Generator: Adobe Illustrator 26.3.1, SVG Export Plug-In . SVG Version: 6.00 Build 0)  -->
<svg version="1.1" id="Layer_1" xmlns="http://www.w3.org/2000/svg" xmlns:xlink="http://www.w3.org/1999/xlink" x="0px" y="0px"
	 viewBox="0 0 2000 2000" style="enable-background:new 0 0 2000 2000;" xml:space="preserve">
<g>
	<path d="M1732.6,811c-13.8-56.6-34.3-111.7-60.8-163.7c-6.3-12.3-21.3-17.2-33.6-10.9c-12.3,6.3-17.2,21.3-10.9,33.6
		c50.9,99.6,76.7,207.3,76.7,319.9c0,388.2-315.8,704-704,704c-198.5,0-384.6-82.2-517.8-227H607c13.8,0,25-11.2,25-25
		s-11.2-25-25-25H397v210c0,13.8,11.2,25,25,25s25-11.2,25-25v-124.5c25.2,27.1,52.3,52.4,81.1,75.6c43.3,34.8,90.4,64.7,140.1,89.1
		c50.6,24.8,104,43.9,158.8,56.8c56.4,13.2,114.6,19.9,173,19.9c101.8,0,200.5-19.9,293.5-59.3c89.8-38,170.4-92.3,239.7-161.6
		s123.6-149.9,161.6-239.7c39.3-93,59.3-191.7,59.3-293.5C1754,929.5,1746.8,869.2,1732.6,811z"/>
	<path d="M296,990c0-388.2,315.8-704,704-704c191.4,0,373.1,77.5,505.5,214H1375c-13.8,0-25,11.2-25,25s11.2,25,25,25h210V340
		c0-13.8-11.2-25-25-25s-25,11.2-25,25v118.7C1393.8,316.5,1201.9,236,1000,236c-101.8,0-200.5,19.9-293.5,59.3
		c-89.8,38-170.4,92.3-239.7,161.6c-69.2,69.2-123.6,149.9-161.6,239.7C265.9,789.5,246,888.2,246,990c0,58.4,6.7,116.6,20,173
		c12.9,54.8,32,108.3,56.8,158.9c4.3,8.9,13.2,14,22.5,14c3.7,0,7.5-0.8,11-2.6c12.4-6.1,17.5-21.1,11.4-33.5
		C320.1,1203,296,1098.7,296,990z"/>
	<path d="M1465,1073.4V926.6l-132.5-29.9l-24.3-58.7l72.5-114.8l-103.8-103.8l-114.8,72.5l-58.7-24.3L1073.4,535H926.6l-29.9,132.5
		l-58.7,24.3l-114.8-72.5L619.3,723.1l72.5,114.8l-24.3,58.7L535,926.6v146.8l132.5,29.9l24.3,58.7l-72.5,114.8l103.8,103.8
		l114.8-72.5l58.7,24.3l29.9,132.5h146.8l29.9-132.5l58.7-24.3l114.8,72.5l103.8-103.8l-72.5-114.8l24.3-58.7L1465,1073.4z
		 M1317.1,1269.8l-47.3,47.3l-102.9-65l-106.6,44.2l-26.8,118.8h-66.9l-26.8-118.8l-106.6-44.2l-102.9,65l-47.3-47.3l65-102.9
		l-44.2-106.6L585,1033.4v-66.9l118.8-26.8l44.2-106.6l-65-102.9l47.3-47.3l102.9,65l106.6-44.2L966.6,585h66.9l26.8,118.8
		l106.6,44.2l102.9-65l47.3,47.3l-65,102.9l44.2,106.6l118.8,26.8v66.9l-118.8,26.8l-44.2,106.6L1317.1,1269.8z"/>
	<path d="M1086.5,984.3c-11.5-5.1-33.2-12.2-65.1-21.4c-3.4-1-5.8-4.1-5.8-7.7V877c0-5.1,4.8-9,9.8-7.8
		c17.7,4.4,30.6,16.7,38.8,36.7c1.5,3.6,5.3,5.6,9.1,4.8l38.9-8.2c4.8-1,7.6-6,5.8-10.6c-15.4-40.5-47.3-64.8-95.7-72.7
		c-3.9-0.6-6.8-4-6.8-7.9v-23.8c0-4.4-3.6-8-8-8h-20.3c-4.4,0-8,3.6-8,8v23.7c0,4-2.9,7.3-6.9,7.9c-71.4,10.5-107.2,45-107.2,103.4
		c0,23.3,7.2,43.2,21.5,60c13.7,16,42.5,29.3,86.4,40c3.6,0.9,6.1,4.1,6.1,7.8v90.6c0,5-4.5,8.7-9.4,7.9
		c-28.8-5.1-48.3-22.7-58.5-52.8c-1.3-3.9-5.4-6.1-9.4-5.2l-41.8,9.7c-4.7,1.1-7.4,6-5.7,10.5c19.2,51.4,58.4,80.6,117.7,87.4
		c4,0.5,7,3.9,7,8v34.4c0,4.4,3.6,8,8,8h20.3c4.4,0,8-3.6,8-8v-34.5c0-4.1,3.1-7.5,7.1-7.9c35-4.1,61.9-15.4,80.9-33.9
		c20.2-19.7,30.3-44.4,30.3-74c0-20.9-4.9-39.2-14.6-54.7C1109.6,1000.2,1098.7,989.7,1086.5,984.3z M979.5,948.4
		c0,5-4.6,8.8-9.5,7.8c-30.1-6.1-45.2-20.5-45.2-43.2c0-14.8,5.2-26.1,15.7-33.7c8.4-6.1,18.5-9.8,30.3-11.1
		c4.7-0.5,8.8,3.2,8.8,7.9V948.4z M1058,1115.3c-9.3,7.9-20.4,12.6-33.3,14.2c-4.8,0.6-9-3.1-9-7.9v-84.4c0-5.2,4.9-9,9.9-7.7
		c32.9,8.2,49.3,24.2,49.3,48C1075,1093,1069.3,1105.6,1058,1115.3z"/>
</g>
</svg>
